<?xml version="1.0" encoding="UTF-8" standalone="no"?>
<!DOCTYPE svg PUBLIC "-//W3C//DTD SVG 1.1//EN"
 "http://www.w3.org/Graphics/SVG/1.1/DTD/svg11.dtd">
<!-- Generated by graphviz version 2.40.1 (20161225.0304)
 -->
<!-- Title: state transitions Pages: 1 -->
<svg width="699pt" height="470pt"
 viewBox="0.00 0.00 698.93 470.00" xmlns="http://www.w3.org/2000/svg" xmlns:xlink="http://www.w3.org/1999/xlink">
<g id="graph0" class="graph" transform="scale(1 1) rotate(0) translate(4 466)">
<title>state transitions</title>
<polygon fill="#ffffff" stroke="transparent" points="-4,4 -4,-466 694.931,-466 694.931,4 -4,4"/>
<g id="clust1" class="cluster state regular">
<title>cluster_move_state</title>
<path fill="none" stroke="#000000" stroke-width="2" d="M20,-8C20,-8 576,-8 576,-8 582,-8 588,-14 588,-20 588,-20 588,-442 588,-442 588,-448 582,-454 576,-454 576,-454 20,-454 20,-454 14,-454 8,-448 8,-442 8,-442 8,-20 8,-20 8,-14 14,-8 20,-8"/>
<text text-anchor="start" x="266.9908" y="-435.2" font-family="Helvetica,sans-Serif" font-size="12.00" fill="#000000">move_state</text>
</g>
<!-- move_state -->
<!-- s0 -->
<g id="node2" class="node state regular">
<title>s0</title>
<polygon fill="#ffffff" fill-opacity="0.003922" stroke="transparent" stroke-width="2" points="558,-416 502,-416 502,-380 558,-380 558,-416"/>
<text text-anchor="start" x="523.6646" y="-394.2" font-family="Helvetica,sans-Serif" font-size="12.00" fill="#000000">s0</text>
<path fill="none" stroke="#000000" stroke-width="2" d="M514.3333,-381C514.3333,-381 545.6667,-381 545.6667,-381 551.3333,-381 557,-386.6667 557,-392.3333 557,-392.3333 557,-403.6667 557,-403.6667 557,-409.3333 551.3333,-415 545.6667,-415 545.6667,-415 514.3333,-415 514.3333,-415 508.6667,-415 503,-409.3333 503,-403.6667 503,-403.6667 503,-392.3333 503,-392.3333 503,-386.6667 508.6667,-381 514.3333,-381"/>
</g>
<!-- s1 -->
<g id="node3" class="node state regular">
<title>s1</title>
<polygon fill="#ffffff" fill-opacity="0.003922" stroke="transparent" stroke-width="2" points="558,-334 502,-334 502,-298 558,-298 558,-334"/>
<text text-anchor="start" x="523.6646" y="-312.2" font-family="Helvetica,sans-Serif" font-size="12.00" fill="#000000">s1</text>
<path fill="none" stroke="#000000" stroke-width="2" d="M514.3333,-299C514.3333,-299 545.6667,-299 545.6667,-299 551.3333,-299 557,-304.6667 557,-310.3333 557,-310.3333 557,-321.6667 557,-321.6667 557,-327.3333 551.3333,-333 545.6667,-333 545.6667,-333 514.3333,-333 514.3333,-333 508.6667,-333 503,-327.3333 503,-321.6667 503,-321.6667 503,-310.3333 503,-310.3333 503,-304.6667 508.6667,-299 514.3333,-299"/>
</g>
<!-- s0&#45;&gt;s1 -->
<g id="edge1" class="edge transition">
<title>s0&#45;&gt;s1</title>
<path fill="none" stroke="#000000" d="M530,-379.8015C530,-369.3976 530,-356.1215 530,-344.3768"/>
<polygon fill="#000000" stroke="#000000" points="533.5001,-344.1476 530,-334.1476 526.5001,-344.1476 533.5001,-344.1476"/>
<text text-anchor="start" x="530" y="-354" font-family="Helvetica,sans-Serif" font-size="10.00" fill="#000000">str_run &#160;&#160;</text>
</g>
<!-- s2 -->
<g id="node4" class="node state regular">
<title>s2</title>
<polygon fill="#ffffff" fill-opacity="0.003922" stroke="transparent" stroke-width="2" points="77,-240 21,-240 21,-204 77,-204 77,-240"/>
<text text-anchor="start" x="42.6646" y="-218.2" font-family="Helvetica,sans-Serif" font-size="12.00" fill="#000000">s2</text>
<path fill="none" stroke="#000000" stroke-width="2" d="M33.3333,-205C33.3333,-205 64.6667,-205 64.6667,-205 70.3333,-205 76,-210.6667 76,-216.3333 76,-216.3333 76,-227.6667 76,-227.6667 76,-233.3333 70.3333,-239 64.6667,-239 64.6667,-239 33.3333,-239 33.3333,-239 27.6667,-239 22,-233.3333 22,-227.6667 22,-227.6667 22,-216.3333 22,-216.3333 22,-210.6667 27.6667,-205 33.3333,-205"/>
</g>
<!-- s1&#45;&gt;s2 -->
<g id="edge3" class="edge transition">
<title>s1&#45;&gt;s2</title>
<path fill="none" stroke="#000000" d="M501.7355,-313.5815C460.2224,-309.5407 380.6155,-299.9258 315.335,-281 289.1961,-273.4219 285.3509,-263.8044 259,-257 187.6198,-238.568 165.5806,-257.6374 94,-240 91.5694,-239.4011 89.0961,-238.6983 86.6227,-237.9239"/>
<polygon fill="#000000" stroke="#000000" points="87.7679,-234.6166 77.1731,-234.6499 85.4762,-241.2309 87.7679,-234.6166"/>
<text text-anchor="start" x="315" y="-272" font-family="Helvetica,sans-Serif" font-size="10.00" fill="#000000">block_horizontal_collision || left_wall_collision &#160;&#160;</text>
<text text-anchor="start" x="315" y="-260" font-family="Helvetica,sans-Serif" font-size="10.00" fill="#000000">delay_counter == 0 &#160;&#160;</text>
</g>
<!-- s3 -->
<g id="node5" class="node state regular">
<title>s3</title>
<polygon fill="#ffffff" fill-opacity="0.003922" stroke="transparent" stroke-width="2" points="114,-52 58,-52 58,-16 114,-16 114,-52"/>
<text text-anchor="start" x="79.6646" y="-30.2" font-family="Helvetica,sans-Serif" font-size="12.00" fill="#000000">s3</text>
<path fill="none" stroke="#000000" stroke-width="2" d="M70.3333,-17C70.3333,-17 101.6667,-17 101.6667,-17 107.3333,-17 113,-22.6667 113,-28.3333 113,-28.3333 113,-39.6667 113,-39.6667 113,-45.3333 107.3333,-51 101.6667,-51 101.6667,-51 70.3333,-51 70.3333,-51 64.6667,-51 59,-45.3333 59,-39.6667 59,-39.6667 59,-28.3333 59,-28.3333 59,-22.6667 64.6667,-17 70.3333,-17"/>
</g>
<!-- s1&#45;&gt;s3 -->
<g id="edge4" class="edge transition">
<title>s1&#45;&gt;s3</title>
<path fill="none" stroke="#000000" d="M544.3687,-297.9162C555.0012,-283.2655 568.5454,-261.5808 574,-240 592.6235,-166.3171 625.7822,-124.6291 574,-69 558.7223,-52.5874 236.5456,-39.4349 124.2205,-35.3332"/>
<polygon fill="#000000" stroke="#000000" points="124.1426,-31.8282 114.0227,-34.9647 123.8898,-38.8236 124.1426,-31.8282"/>
<text text-anchor="start" x="597" y="-178" font-family="Helvetica,sans-Serif" font-size="10.00" fill="#000000">paddle_collision &#160;&#160;</text>
<text text-anchor="start" x="597" y="-166" font-family="Helvetica,sans-Serif" font-size="10.00" fill="#000000">delay_counter == 0 &#160;&#160;</text>
</g>
<!-- s4 -->
<g id="node6" class="node state regular">
<title>s4</title>
<polygon fill="#ffffff" fill-opacity="0.003922" stroke="transparent" stroke-width="2" points="551,-146 495,-146 495,-110 551,-110 551,-146"/>
<text text-anchor="start" x="516.6646" y="-124.2" font-family="Helvetica,sans-Serif" font-size="12.00" fill="#000000">s4</text>
<path fill="none" stroke="#000000" stroke-width="2" d="M507.3333,-111C507.3333,-111 538.6667,-111 538.6667,-111 544.3333,-111 550,-116.6667 550,-122.3333 550,-122.3333 550,-133.6667 550,-133.6667 550,-139.3333 544.3333,-145 538.6667,-145 538.6667,-145 507.3333,-145 507.3333,-145 501.6667,-145 496,-139.3333 496,-133.6667 496,-133.6667 496,-122.3333 496,-122.3333 496,-116.6667 501.6667,-111 507.3333,-111"/>
</g>
<!-- s1&#45;&gt;s4 -->
<g id="edge2" class="edge transition">
<title>s1&#45;&gt;s4</title>
<path fill="none" stroke="#000000" d="M538.7604,-297.7946C543.5776,-284.8452 546.8037,-267.8824 537,-257 524.8454,-243.508 386.6056,-253.492 374.451,-240 363.7419,-228.1124 366.1023,-217.6492 374.451,-204 380.8317,-193.5683 443.4174,-163.8357 485.2911,-144.8005"/>
<polygon fill="#000000" stroke="#000000" points="486.9943,-147.8715 494.6629,-140.5611 484.1092,-141.4937 486.9943,-147.8715"/>
<text text-anchor="start" x="374" y="-225" font-family="Helvetica,sans-Serif" font-size="10.00" fill="#000000">block_vertical_collision || top_wall_collision &#160;&#160;</text>
<text text-anchor="start" x="374" y="-213" font-family="Helvetica,sans-Serif" font-size="10.00" fill="#000000">delay_counter == 0 &#160;&#160;</text>
</g>
<!-- s2&#45;&gt;s1 -->
<g id="edge6" class="edge transition">
<title>s2&#45;&gt;s1</title>
<path fill="none" stroke="#000000" d="M38.4983,-240.2427C32.566,-253.2106 28.1489,-270.1802 38.226,-281 53.6257,-297.5347 378.2915,-310.6078 491.4843,-314.678"/>
<polygon fill="#000000" stroke="#000000" points="491.6427,-318.1858 501.7608,-315.0436 491.8916,-311.1902 491.6427,-318.1858"/>
<text text-anchor="start" x="38" y="-272" font-family="Helvetica,sans-Serif" font-size="10.00" fill="#000000">block_horizontal_collision || right_wall_collision &#160;&#160;</text>
<text text-anchor="start" x="38" y="-260" font-family="Helvetica,sans-Serif" font-size="10.00" fill="#000000">delay_counter == 0 &#160;&#160;</text>
</g>
<!-- s2&#45;&gt;s3 -->
<g id="edge5" class="edge transition">
<title>s2&#45;&gt;s3</title>
<path fill="none" stroke="#000000" d="M40.8976,-203.8677C28.0413,-172.1135 7.1274,-105.4952 35,-60 38.3731,-54.4943 43.3188,-50.1085 48.8217,-46.6288"/>
<polygon fill="#000000" stroke="#000000" points="50.5879,-49.654 57.7819,-41.8759 47.3076,-43.4701 50.5879,-49.654"/>
<text text-anchor="start" x="23" y="-131" font-family="Helvetica,sans-Serif" font-size="10.00" fill="#000000">block_vertical_collision || top_wall_collision &#160;&#160;</text>
<text text-anchor="start" x="23" y="-119" font-family="Helvetica,sans-Serif" font-size="10.00" fill="#000000">delay_counter == 0 &#160;&#160;</text>
</g>
<!-- s2&#45;&gt;s4 -->
<g id="edge7" class="edge transition">
<title>s2&#45;&gt;s4</title>
<path fill="none" stroke="#000000" d="M77.3884,-210.0899C82.8606,-207.9521 88.5775,-205.8261 94,-204 106.6711,-199.7328 110.6881,-201.2136 123,-196 149.6264,-184.7248 151.5652,-171.9239 179.069,-163 242.3574,-142.4654 412.9219,-159.8543 478,-146 480.361,-145.4974 482.7579,-144.8814 485.153,-144.1837"/>
<polygon fill="#000000" stroke="#000000" points="486.5128,-147.4198 494.8928,-140.9371 484.2992,-140.7791 486.5128,-147.4198"/>
<text text-anchor="start" x="179" y="-178" font-family="Helvetica,sans-Serif" font-size="10.00" fill="#000000">paddle_collision &#160;&#160;</text>
<text text-anchor="start" x="179" y="-166" font-family="Helvetica,sans-Serif" font-size="10.00" fill="#000000">delay_counter == 0 &#160;&#160;</text>
</g>
<!-- s3&#45;&gt;s2 -->
<g id="edge8" class="edge transition">
<title>s3&#45;&gt;s2</title>
<path fill="none" stroke="#000000" d="M75.0833,-52.0546C69.0489,-64.601 64.35,-81.1338 73,-93 80.6999,-103.5629 88.1569,-99.5672 101,-102 114.7831,-104.6108 217.4,-99.7711 227,-110 237.9494,-121.6666 237.2461,-133.7111 227,-146 200.0922,-178.2723 172.8023,-146.8782 134,-163 113.7048,-171.4323 93.3945,-185.2802 77.7189,-197.4414"/>
<polygon fill="#000000" stroke="#000000" points="75.155,-195.0092 69.5165,-203.979 79.518,-200.4832 75.155,-195.0092"/>
<text text-anchor="start" x="234" y="-131" font-family="Helvetica,sans-Serif" font-size="10.00" fill="#000000">block_vertical_collision || paddle_collision &#160;&#160;</text>
<text text-anchor="start" x="234" y="-119" font-family="Helvetica,sans-Serif" font-size="10.00" fill="#000000">delay_counter == 0 &#160;&#160;</text>
</g>
<!-- s3&#45;&gt;s4 -->
<g id="edge9" class="edge transition">
<title>s3&#45;&gt;s4</title>
<path fill="none" stroke="#000000" d="M114.3104,-36.407C155.8906,-40.4335 235.6245,-50.0306 301,-69 327.0944,-76.5716 331.0516,-85.7099 357.226,-93 409.4449,-107.5441 425.6178,-96.0555 478,-110 480.419,-110.644 482.8835,-111.3813 485.3503,-112.1817"/>
<polygon fill="#000000" stroke="#000000" points="484.1894,-115.4835 494.7842,-115.5168 486.5226,-108.8838 484.1894,-115.4835"/>
<text text-anchor="start" x="357" y="-84" font-family="Helvetica,sans-Serif" font-size="10.00" fill="#000000">block_horizontal_collision || right_wall_collision &#160;&#160;</text>
<text text-anchor="start" x="357" y="-72" font-family="Helvetica,sans-Serif" font-size="10.00" fill="#000000">delay_counter == 0 &#160;&#160;</text>
</g>
<!-- s4&#45;&gt;s1 -->
<g id="edge10" class="edge transition">
<title>s4&#45;&gt;s1</title>
<path fill="none" stroke="#000000" d="M494.7107,-140.2226C489.2293,-142.3315 483.4838,-144.367 478,-146 476.6151,-146.4124 275.4216,-186.7409 274,-187 250.9851,-191.1943 185.2566,-186.1723 170.109,-204 159.749,-216.193 159.0685,-228.4195 170.109,-240 183.7677,-254.3267 511.8643,-243.1437 526,-257 534.0007,-264.8425 535.9073,-276.7196 535.4615,-287.7667"/>
<polygon fill="#000000" stroke="#000000" points="531.9562,-287.6443 534.4354,-297.945 538.9209,-288.3465 531.9562,-287.6443"/>
<text text-anchor="start" x="170" y="-225" font-family="Helvetica,sans-Serif" font-size="10.00" fill="#000000">block_vertical_collision || paddle_collision &#160;&#160;</text>
<text text-anchor="start" x="170" y="-213" font-family="Helvetica,sans-Serif" font-size="10.00" fill="#000000">delay_counter == 0 &#160;&#160;</text>
</g>
<!-- s4&#45;&gt;s3 -->
<g id="edge11" class="edge transition">
<title>s4&#45;&gt;s3</title>
<path fill="none" stroke="#000000" d="M494.8886,-115.0827C489.3908,-113.0378 483.5937,-111.2036 478,-110 435.4154,-100.8369 116.5501,-124.3762 86.335,-93 78.6352,-85.0044 77.3942,-73.2057 78.5236,-62.2565"/>
<polygon fill="#000000" stroke="#000000" points="82.0128,-62.6094 80.1992,-52.171 75.1075,-61.4621 82.0128,-62.6094"/>
<text text-anchor="start" x="86" y="-84" font-family="Helvetica,sans-Serif" font-size="10.00" fill="#000000">block_horizontal_collision || left_wall_collision &#160;&#160;</text>
<text text-anchor="start" x="86" y="-72" font-family="Helvetica,sans-Serif" font-size="10.00" fill="#000000">delay_counter == 0 &#160;&#160;</text>
</g>
</g>
</svg>
