<?xml version="1.0" encoding="UTF-8" standalone="no"?>
<!DOCTYPE svg PUBLIC "-//W3C//DTD SVG 1.1//EN"
 "http://www.w3.org/Graphics/SVG/1.1/DTD/svg11.dtd">
<!-- Generated by graphviz version 2.40.1 (20161225.0304)
 -->
<!-- Title: state transitions Pages: 1 -->
<svg width="3328pt" height="672pt"
 viewBox="0.00 0.00 3328.16 672.00" xmlns="http://www.w3.org/2000/svg" xmlns:xlink="http://www.w3.org/1999/xlink">
<g id="graph0" class="graph" transform="scale(1 1) rotate(0) translate(4 668)">
<title>state transitions</title>
<polygon fill="#ffffff" stroke="transparent" points="-4,4 -4,-668 3324.161,-668 3324.161,4 -4,4"/>
<g id="clust1" class="cluster state regular">
<title>cluster_move_state</title>
<path fill="none" stroke="#000000" stroke-width="2" d="M20,-8C20,-8 3070,-8 3070,-8 3076,-8 3082,-14 3082,-20 3082,-20 3082,-644 3082,-644 3082,-650 3076,-656 3070,-656 3070,-656 20,-656 20,-656 14,-656 8,-650 8,-644 8,-644 8,-20 8,-20 8,-14 14,-8 20,-8"/>
<text text-anchor="start" x="1513.9908" y="-637.2" font-family="Helvetica,sans-Serif" font-size="12.00" fill="#000000">move_state</text>
</g>
<!-- move_state -->
<!-- s0 -->
<g id="node2" class="node state regular">
<title>s0</title>
<polygon fill="#ffffff" fill-opacity="0.003922" stroke="transparent" stroke-width="2" points="1485,-618 1429,-618 1429,-582 1485,-582 1485,-618"/>
<text text-anchor="start" x="1450.6646" y="-596.2" font-family="Helvetica,sans-Serif" font-size="12.00" fill="#000000">s0</text>
<path fill="none" stroke="#000000" stroke-width="2" d="M1441.3333,-583C1441.3333,-583 1472.6667,-583 1472.6667,-583 1478.3333,-583 1484,-588.6667 1484,-594.3333 1484,-594.3333 1484,-605.6667 1484,-605.6667 1484,-611.3333 1478.3333,-617 1472.6667,-617 1472.6667,-617 1441.3333,-617 1441.3333,-617 1435.6667,-617 1430,-611.3333 1430,-605.6667 1430,-605.6667 1430,-594.3333 1430,-594.3333 1430,-588.6667 1435.6667,-583 1441.3333,-583"/>
</g>
<!-- s1 -->
<g id="node3" class="node state regular">
<title>s1</title>
<polygon fill="#ffffff" fill-opacity="0.003922" stroke="transparent" stroke-width="2" points="1485,-536 1429,-536 1429,-500 1485,-500 1485,-536"/>
<text text-anchor="start" x="1450.6646" y="-514.2" font-family="Helvetica,sans-Serif" font-size="12.00" fill="#000000">s1</text>
<path fill="none" stroke="#000000" stroke-width="2" d="M1441.3333,-501C1441.3333,-501 1472.6667,-501 1472.6667,-501 1478.3333,-501 1484,-506.6667 1484,-512.3333 1484,-512.3333 1484,-523.6667 1484,-523.6667 1484,-529.3333 1478.3333,-535 1472.6667,-535 1472.6667,-535 1441.3333,-535 1441.3333,-535 1435.6667,-535 1430,-529.3333 1430,-523.6667 1430,-523.6667 1430,-512.3333 1430,-512.3333 1430,-506.6667 1435.6667,-501 1441.3333,-501"/>
</g>
<!-- s0&#45;&gt;s1 -->
<g id="edge1" class="edge transition">
<title>s0&#45;&gt;s1</title>
<path fill="none" stroke="#000000" d="M1457,-581.8015C1457,-571.3976 1457,-558.1215 1457,-546.3768"/>
<polygon fill="#000000" stroke="#000000" points="1460.5001,-546.1476 1457,-536.1476 1453.5001,-546.1476 1460.5001,-546.1476"/>
<text text-anchor="middle" x="1458.3895" y="-556" font-family="Helvetica,sans-Serif" font-size="10.00" fill="#000000"> </text>
</g>
<!-- s1&#45;&gt;move_state -->
<g id="edge8" class="edge transition">
<title>s1&#45;&gt;move_state</title>
<path fill="none" stroke="#ff0000" d="M1428.9548,-517.573C1316.2367,-515.7805 885.2541,-508.1947 531,-492 448.7772,-488.2412 347,-553.3087 347,-471 347,-471 347,-471 347,-344.5 347,-275.0869 321,-259.9131 321,-190.5 321,-190.5 321,-190.5 321,-93 321,-40.8481 412.5953,-67.2181 561,-60 783.3232,-49.1867 1055.3466,-36.9434 1110.8373,-34.4551"/>
<polygon fill="#ff0000" stroke="#ff0000" points="1111.1098,-37.9465 1120.9432,-34.0025 1110.7966,-30.9535 1111.1098,-37.9465"/>
<text text-anchor="start" x="346" y="-321" font-family="Helvetica,sans-Serif" font-size="10.00" fill="#ff0000">not (ball_x_reg&gt;=170&amp;&amp;ball_x_reg&lt;=230) &#160;&#160;</text>
<text text-anchor="start" x="346" y="-309" font-family="Helvetica,sans-Serif" font-size="10.00" fill="#ff0000">not (ball_x_reg&gt;=290&amp;&amp;ball_x_reg&lt;=350) &#160;&#160;</text>
<text text-anchor="start" x="346" y="-297" font-family="Helvetica,sans-Serif" font-size="10.00" fill="#ff0000">not (ball_x_reg&gt;=410&amp;&amp;ball_x_reg&lt;=470) &#160;&#160;</text>
<text text-anchor="start" x="346" y="-285" font-family="Helvetica,sans-Serif" font-size="10.00" fill="#ff0000">ball_y_reg == 220 &#160;&#160;</text>
</g>
<!-- s1&#45;&gt;move_state -->
<g id="edge10" class="edge transition">
<title>s1&#45;&gt;move_state</title>
<path fill="none" stroke="#ff0000" d="M1485.1294,-517.9544C1627.0201,-517.6208 2278.3719,-514.8553 2811,-492 2871.0779,-489.422 2887.2279,-495.7218 2946,-483 2996.5867,-472.05 3024.4864,-483.8071 3055,-442 3075.1933,-414.3328 3091.1751,-159.2222 3068,-134 2997.9276,-57.7381 1281.6439,-35.8872 1131.4699,-34.1198"/>
<polygon fill="#ff0000" stroke="#ff0000" points="1131.125,-30.6157 1121.0856,-34.0009 1131.0448,-37.6152 1131.125,-30.6157"/>
<text text-anchor="start" x="3078" y="-309" font-family="Helvetica,sans-Serif" font-size="10.00" fill="#ff0000">not (ball_y_reg&gt;=180 &amp;&amp; ball_y_reg&lt;=220) &#160;&#160;</text>
<text text-anchor="start" x="3078" y="-297" font-family="Helvetica,sans-Serif" font-size="10.00" fill="#ff0000">ball_x_reg==230||ball_x_reg==350||ball_x_reg==470 &#160;&#160;</text>
</g>
<!-- s1&#45;&gt;move_state -->
<g id="edge11" class="edge transition">
<title>s1&#45;&gt;move_state</title>
<path fill="none" stroke="#ff0000" d="M1428.9739,-517.8277C1229.9308,-516.515 38,-507.1453 38,-471 38,-471 38,-471 38,-93 38,-21.7328 285.9002,-64.8815 357,-60 665.0616,-38.8493 1044.2371,-34.668 1110.7949,-34.0815"/>
<polygon fill="#ff0000" stroke="#ff0000" points="1110.9508,-37.5804 1120.9224,-34.0005 1110.8947,-30.5807 1110.9508,-37.5804"/>
<text text-anchor="start" x="38" y="-327" font-family="Helvetica,sans-Serif" font-size="10.00" fill="#ff0000">not (ball_x_reg==160&amp;&amp;ball_y_reg==120) &#160;&#160;</text>
<text text-anchor="start" x="38" y="-315" font-family="Helvetica,sans-Serif" font-size="10.00" fill="#ff0000">not (ball_y_reg == 120) &#160;&#160;</text>
<text text-anchor="start" x="38" y="-303" font-family="Helvetica,sans-Serif" font-size="10.00" fill="#ff0000">not (ball_x_reg == 160) &#160;&#160;</text>
<text text-anchor="start" x="38" y="-291" font-family="Helvetica,sans-Serif" font-size="10.00" fill="#ff0000">not (ball_y_reg == 220) &#160;&#160;</text>
<text text-anchor="start" x="38" y="-279" font-family="Helvetica,sans-Serif" font-size="10.00" fill="#ff0000">not (ball_x_reg==230||ball_x_reg==350||ball_x_reg==470) &#160;&#160;</text>
</g>
<!-- s2 -->
<g id="node4" class="node state regular">
<title>s2</title>
<polygon fill="#ffffff" fill-opacity="0.003922" stroke="transparent" stroke-width="2" points="1076,-442 1020,-442 1020,-406 1076,-406 1076,-442"/>
<text text-anchor="start" x="1041.6646" y="-420.2" font-family="Helvetica,sans-Serif" font-size="12.00" fill="#000000">s2</text>
<path fill="none" stroke="#000000" stroke-width="2" d="M1032.3333,-407C1032.3333,-407 1063.6667,-407 1063.6667,-407 1069.3333,-407 1075,-412.6667 1075,-418.3333 1075,-418.3333 1075,-429.6667 1075,-429.6667 1075,-435.3333 1069.3333,-441 1063.6667,-441 1063.6667,-441 1032.3333,-441 1032.3333,-441 1026.6667,-441 1021,-435.3333 1021,-429.6667 1021,-429.6667 1021,-418.3333 1021,-418.3333 1021,-412.6667 1026.6667,-407 1032.3333,-407"/>
</g>
<!-- s1&#45;&gt;s2 -->
<g id="edge4" class="edge transition">
<title>s1&#45;&gt;s2</title>
<path fill="none" stroke="#000000" d="M1428.6809,-517.7113C1298.7868,-516.2497 765.2959,-508.6944 741.629,-483 734.4024,-475.1543 734.5275,-466.959 741.629,-459 759.1814,-439.3282 931.12,-429.2071 1009.4605,-425.5862"/>
<polygon fill="#000000" stroke="#000000" points="1010.0351,-429.064 1019.8677,-425.1181 1009.7205,-422.0711 1010.0351,-429.064"/>
<text text-anchor="start" x="741" y="-468" font-family="Helvetica,sans-Serif" font-size="10.00" fill="#000000">ball_x_reg == 160 &#160;&#160;</text>
</g>
<!-- s1&#45;&gt;s2 -->
<g id="edge9" class="edge transition">
<title>s1&#45;&gt;s2</title>
<path fill="none" stroke="#000000" d="M1428.8212,-517.5153C1271.2355,-514.7396 505.5962,-500.374 488.839,-483 481.434,-475.3225 481.5359,-466.7745 488.839,-459 506.6744,-440.0133 886.3257,-428.2918 1009.6671,-424.9739"/>
<polygon fill="#000000" stroke="#000000" points="1009.8797,-428.4696 1019.7833,-424.7052 1009.6938,-421.472 1009.8797,-428.4696"/>
<text text-anchor="start" x="488" y="-474" font-family="Helvetica,sans-Serif" font-size="10.00" fill="#000000">ball_y_reg&gt;=180 &amp;&amp; ball_y_reg&lt;=220 &#160;&#160;</text>
<text text-anchor="start" x="488" y="-462" font-family="Helvetica,sans-Serif" font-size="10.00" fill="#000000">ball_x_reg==230||ball_x_reg==350||ball_x_reg==470 &#160;&#160;</text>
</g>
<!-- s3 -->
<g id="node5" class="node state regular">
<title>s3</title>
<polygon fill="#ffffff" fill-opacity="0.003922" stroke="transparent" stroke-width="2" points="1244,-176 1188,-176 1188,-140 1244,-140 1244,-176"/>
<text text-anchor="start" x="1209.6646" y="-154.2" font-family="Helvetica,sans-Serif" font-size="12.00" fill="#000000">s3</text>
<path fill="none" stroke="#000000" stroke-width="2" d="M1200.3333,-141C1200.3333,-141 1231.6667,-141 1231.6667,-141 1237.3333,-141 1243,-146.6667 1243,-152.3333 1243,-152.3333 1243,-163.6667 1243,-163.6667 1243,-169.3333 1237.3333,-175 1231.6667,-175 1231.6667,-175 1200.3333,-175 1200.3333,-175 1194.6667,-175 1189,-169.3333 1189,-163.6667 1189,-163.6667 1189,-152.3333 1189,-152.3333 1189,-146.6667 1194.6667,-141 1200.3333,-141"/>
</g>
<!-- s1&#45;&gt;s3 -->
<g id="edge2" class="edge transition">
<title>s1&#45;&gt;s3</title>
<path fill="none" stroke="#000000" d="M1428.7972,-517.6044C1294.8677,-515.6631 722.1883,-506.6441 544,-492 529.5619,-490.8134 394,-471.0789 394,-471 394,-471 394,-471 394,-397.5 394,-376.426 393.8739,-366.1108 410.373,-353 457.9351,-315.2052 505.803,-381.55 546,-336 563.6447,-316.0056 563.8451,-295.8157 546,-276 521.7768,-249.1019 408.2232,-285.8981 384,-259 366.1549,-239.1843 365.6137,-218.3146 384,-199 411.6886,-169.9134 1017.8209,-160.4339 1177.6503,-158.4354"/>
<polygon fill="#000000" stroke="#000000" points="1177.9919,-161.9316 1187.9482,-158.3093 1177.9061,-154.9321 1177.9919,-161.9316"/>
<text text-anchor="start" x="410" y="-368" font-family="Helvetica,sans-Serif" font-size="10.00" fill="#000000">ball_x_reg==160&amp;&amp;ball_y_reg==120 &#160;&#160;</text>
</g>
<!-- s4 -->
<g id="node6" class="node state regular">
<title>s4</title>
<polygon fill="#ffffff" fill-opacity="0.003922" stroke="transparent" stroke-width="2" points="2788,-324 2732,-324 2732,-288 2788,-288 2788,-324"/>
<text text-anchor="start" x="2753.6646" y="-302.2" font-family="Helvetica,sans-Serif" font-size="12.00" fill="#000000">s4</text>
<path fill="none" stroke="#000000" stroke-width="2" d="M2744.3333,-289C2744.3333,-289 2775.6667,-289 2775.6667,-289 2781.3333,-289 2787,-294.6667 2787,-300.3333 2787,-300.3333 2787,-311.6667 2787,-311.6667 2787,-317.3333 2781.3333,-323 2775.6667,-323 2775.6667,-323 2744.3333,-323 2744.3333,-323 2738.6667,-323 2733,-317.3333 2733,-311.6667 2733,-311.6667 2733,-300.3333 2733,-300.3333 2733,-294.6667 2738.6667,-289 2744.3333,-289"/>
</g>
<!-- s1&#45;&gt;s4 -->
<g id="edge3" class="edge transition">
<title>s1&#45;&gt;s4</title>
<path fill="none" stroke="#000000" d="M1485.06,-517.8813C1691.087,-516.9204 2962,-509.4357 2962,-471 2962,-471 2962,-471 2962,-371 2962,-335.2547 2837.8723,-350.0407 2805,-336 2800.8067,-334.2089 2796.585,-332.0178 2792.4966,-329.6429"/>
<polygon fill="#000000" stroke="#000000" points="2794.1595,-326.5551 2783.822,-324.2342 2790.4558,-332.4951 2794.1595,-326.5551"/>
<text text-anchor="start" x="2962" y="-421" font-family="Helvetica,sans-Serif" font-size="10.00" fill="#000000">ball_y_reg == 120 &#160;&#160;</text>
</g>
<!-- s1&#45;&gt;s4 -->
<g id="edge5" class="edge transition">
<title>s1&#45;&gt;s4</title>
<path fill="none" stroke="#000000" d="M1456.6362,-499.795C1455.3126,-486.3117 1451.1518,-468.6675 1439,-459 1417.6782,-442.0371 1212.9592,-461.9227 1194.373,-442 1183.4585,-430.3007 1183.1116,-417.3657 1194.373,-406 1202.8549,-397.4395 2049.9511,-398.2164 2062,-398 2080.7259,-397.6636 2382.2294,-397.3378 2399,-389 2421.9345,-377.5978 2412.0762,-355.4236 2435,-344 2462.8566,-330.1183 2685.3435,-345.4437 2715,-336 2719.9068,-334.4375 2724.7765,-332.1676 2729.3998,-329.5651"/>
<polygon fill="#000000" stroke="#000000" points="2731.2954,-332.5079 2737.9319,-324.2491 2727.5936,-326.5667 2731.2954,-332.5079"/>
<text text-anchor="start" x="1194" y="-427" font-family="Helvetica,sans-Serif" font-size="10.00" fill="#000000">ball_x_reg&gt;=170&amp;&amp;ball_x_reg&lt;=230 &#160;&#160;</text>
<text text-anchor="start" x="1194" y="-415" font-family="Helvetica,sans-Serif" font-size="10.00" fill="#000000">ball_y_reg == 220 &#160;&#160;</text>
</g>
<!-- s1&#45;&gt;s4 -->
<g id="edge6" class="edge transition">
<title>s1&#45;&gt;s4</title>
<path fill="none" stroke="#000000" d="M1485.1137,-517.4327C1600.421,-515.0362 2037.4936,-505.2518 2175,-492 2317.4099,-478.2756 2359.2096,-492.686 2493,-442 2520.7996,-431.4682 2523.0611,-419.8355 2549.373,-406 2620.1067,-368.8064 2644.6357,-373.8879 2715,-336 2718.5265,-334.1012 2722.1271,-332.0022 2725.6793,-329.8225"/>
<polygon fill="#000000" stroke="#000000" points="2727.7857,-332.6306 2734.3396,-324.3061 2724.0249,-326.7266 2727.7857,-332.6306"/>
<text text-anchor="start" x="2549" y="-427" font-family="Helvetica,sans-Serif" font-size="10.00" fill="#000000">ball_x_reg&gt;=290&amp;&amp;ball_x_reg&lt;=350 &#160;&#160;</text>
<text text-anchor="start" x="2549" y="-415" font-family="Helvetica,sans-Serif" font-size="10.00" fill="#000000">ball_y_reg == 220 &#160;&#160;</text>
</g>
<!-- s1&#45;&gt;s4 -->
<g id="edge7" class="edge transition">
<title>s1&#45;&gt;s4</title>
<path fill="none" stroke="#000000" d="M1485.1432,-517.7326C1673.7929,-515.8504 2747,-503.7056 2747,-471 2747,-471 2747,-471 2747,-371 2747,-358.6646 2749.279,-345.2638 2751.9286,-333.8521"/>
<polygon fill="#000000" stroke="#000000" points="2755.3568,-334.5715 2754.4114,-324.0189 2748.5698,-332.8578 2755.3568,-334.5715"/>
<text text-anchor="start" x="2747" y="-427" font-family="Helvetica,sans-Serif" font-size="10.00" fill="#000000">ball_x_reg&gt;=410&amp;&amp;ball_x_reg&lt;=470 &#160;&#160;</text>
<text text-anchor="start" x="2747" y="-415" font-family="Helvetica,sans-Serif" font-size="10.00" fill="#000000">ball_y_reg == 220 &#160;&#160;</text>
</g>
<!-- s2&#45;&gt;move_state -->
<g id="edge18" class="edge transition">
<title>s2&#45;&gt;move_state</title>
<path fill="none" stroke="#ff0000" d="M1019.8606,-423.2302C925.0423,-420.5217 622.2322,-410.8946 606,-398 561.7336,-362.8355 613.4576,-312.1592 570,-276 514.114,-229.4996 462.2647,-306.594 407.307,-259 383.5698,-238.4433 390,-221.9011 390,-190.5 390,-190.5 390,-190.5 390,-93 390,-55.1017 1022.4809,-36.6592 1110.8059,-34.2685"/>
<polygon fill="#ff0000" stroke="#ff0000" points="1110.9626,-37.7657 1120.8668,-34.0033 1110.7781,-30.7681 1110.9626,-37.7657"/>
<text text-anchor="start" x="407" y="-244" font-family="Helvetica,sans-Serif" font-size="10.00" fill="#ff0000">not (ball_x_reg&gt;=170&amp;&amp;ball_x_reg+ball_size&lt;=230) &#160;&#160;</text>
<text text-anchor="start" x="407" y="-232" font-family="Helvetica,sans-Serif" font-size="10.00" fill="#ff0000">not (ball_x_reg&gt;=290&amp;&amp;ball_x_reg+ball_size&lt;=350) &#160;&#160;</text>
<text text-anchor="start" x="407" y="-220" font-family="Helvetica,sans-Serif" font-size="10.00" fill="#ff0000">not (ball_x_reg&gt;=410&amp;&amp;ball_x_reg+ball_size&lt;=470) &#160;&#160;</text>
<text text-anchor="start" x="407" y="-208" font-family="Helvetica,sans-Serif" font-size="10.00" fill="#ff0000">ball_y_reg == 220 &#160;&#160;</text>
</g>
<!-- s2&#45;&gt;move_state -->
<g id="edge20" class="edge transition">
<title>s2&#45;&gt;move_state</title>
<path fill="none" stroke="#ff0000" d="M1019.9586,-422.7906C939.5189,-419.1159 711.9645,-407.2079 684,-389 661.317,-374.231 660.894,-362.1747 654,-336 647.208,-310.2128 651.0902,-302.5074 654,-276 656.1238,-256.6527 673,-209.9635 673,-190.5 673,-190.5 673,-190.5 673,-93 673,-47.3684 1043.0593,-35.9467 1110.5142,-34.2438"/>
<polygon fill="#ff0000" stroke="#ff0000" points="1111.0026,-37.7335 1120.9184,-34.0016 1110.8396,-30.7354 1111.0026,-37.7335"/>
<text text-anchor="start" x="672" y="-232" font-family="Helvetica,sans-Serif" font-size="10.00" fill="#ff0000">not (ball_y_reg&gt;=180 &amp;&amp; ball_y_reg+ball_size&lt;=220) &#160;&#160;</text>
<text text-anchor="start" x="672" y="-220" font-family="Helvetica,sans-Serif" font-size="10.00" fill="#ff0000">ball_x_reg+ball_size==170||ball_x_reg+ball_size==290||ball_x_reg+ball_size==410 &#160;&#160;</text>
</g>
<!-- s2&#45;&gt;move_state -->
<g id="edge21" class="edge transition">
<title>s2&#45;&gt;move_state</title>
<path fill="none" stroke="#ff0000" d="M1076.2726,-415.9817C1090.9725,-412.1947 1109.3107,-408.0607 1126,-406 1175.5769,-399.8785 1981.4179,-413.4118 2025,-389 2041.565,-379.7214 2033.5221,-365.2835 2048,-353 2055.743,-346.4306 2059.0675,-346.1111 2069,-344 2084.5704,-340.6906 2630.823,-347.3342 2642,-336 2660.7241,-317.0127 2660.7343,-294.9772 2642,-276 2616.2442,-249.9102 1348.0648,-285.0898 1322.309,-259 1303.5747,-240.0228 1304.4836,-218.8335 1322.309,-199 1436.8464,-71.5593 1974.4626,-244.4407 2089,-117 2103.2603,-101.1332 2103.8099,-84.3551 2089,-69 2071.4661,-50.8207 1233.8868,-35.9307 1131.2682,-34.1735"/>
<polygon fill="#ff0000" stroke="#ff0000" points="1131.1011,-30.6703 1121.0433,-34.0007 1130.9828,-37.6693 1131.1011,-30.6703"/>
<text text-anchor="start" x="1322" y="-250" font-family="Helvetica,sans-Serif" font-size="10.00" fill="#ff0000">not (ball_x_reg+ball_size==480&amp;&amp;ball_y_reg==120) &#160;&#160;</text>
<text text-anchor="start" x="1322" y="-238" font-family="Helvetica,sans-Serif" font-size="10.00" fill="#ff0000">not (ball_y_reg == 120) &#160;&#160;</text>
<text text-anchor="start" x="1322" y="-226" font-family="Helvetica,sans-Serif" font-size="10.00" fill="#ff0000">not (ball_x_reg+ball_size == 480) &#160;&#160;</text>
<text text-anchor="start" x="1322" y="-214" font-family="Helvetica,sans-Serif" font-size="10.00" fill="#ff0000">not (ball_y_reg == 220) &#160;&#160;</text>
<text text-anchor="start" x="1322" y="-202" font-family="Helvetica,sans-Serif" font-size="10.00" fill="#ff0000">not (ball_x_reg+ball_size==170||ball_x_reg+ball_size==290||ball_x_reg+ball_size==410) &#160;&#160;</text>
</g>
<!-- s2&#45;&gt;s1 -->
<g id="edge14" class="edge transition">
<title>s2&#45;&gt;s1</title>
<path fill="none" stroke="#000000" d="M1019.7829,-425.4677C975.2906,-428.4379 892.0154,-436.8768 873.897,-459 867.1385,-467.2523 866.584,-475.2349 873.897,-483 892.6006,-502.8599 1291.9094,-514.0631 1418.7135,-517.1297"/>
<polygon fill="#000000" stroke="#000000" points="1418.6665,-520.6295 1428.7472,-517.369 1418.8335,-513.6315 1418.6665,-520.6295"/>
<text text-anchor="start" x="873" y="-468" font-family="Helvetica,sans-Serif" font-size="10.00" fill="#000000">ball_x_reg+ball_size == 480 &#160;&#160;</text>
</g>
<!-- s2&#45;&gt;s1 -->
<g id="edge19" class="edge transition">
<title>s2&#45;&gt;s1</title>
<path fill="none" stroke="#000000" d="M1043.1561,-442.1546C1040.8558,-455.2512 1040.4907,-472.4211 1050.643,-483 1075.8371,-509.2528 1322.5373,-515.9116 1418.8034,-517.5166"/>
<polygon fill="#000000" stroke="#000000" points="1418.9221,-521.0188 1428.9759,-517.6765 1419.0322,-514.0196 1418.9221,-521.0188"/>
<text text-anchor="start" x="1050" y="-474" font-family="Helvetica,sans-Serif" font-size="10.00" fill="#000000">ball_y_reg&gt;=180 &amp;&amp; ball_y_reg+ball_size&lt;=220 &#160;&#160;</text>
<text text-anchor="start" x="1050" y="-462" font-family="Helvetica,sans-Serif" font-size="10.00" fill="#000000">ball_x_reg+ball_size==170||ball_x_reg+ball_size==290||ball_x_reg+ball_size==410 &#160;&#160;</text>
</g>
<!-- s2&#45;&gt;s3 -->
<g id="edge13" class="edge transition">
<title>s2&#45;&gt;s3</title>
<path fill="none" stroke="#000000" d="M1019.6277,-422.7069C960.6144,-419.775 826.519,-411.7848 783,-398 713.5783,-376.0105 623.2993,-328.6293 673.629,-276 702.8682,-245.4249 1018.321,-281.7327 1054,-259 1083.1716,-240.4134 1062.8731,-211.461 1090,-190 1103.5758,-179.2597 1146.1231,-169.9011 1178.0472,-164.1247"/>
<polygon fill="#000000" stroke="#000000" points="1178.7453,-167.5557 1187.9887,-162.3778 1177.5338,-160.6613 1178.7453,-167.5557"/>
<text text-anchor="start" x="673" y="-303" font-family="Helvetica,sans-Serif" font-size="10.00" fill="#000000">ball_y_reg == 120 &#160;&#160;</text>
</g>
<!-- s2&#45;&gt;s3 -->
<g id="edge15" class="edge transition">
<title>s2&#45;&gt;s3</title>
<path fill="none" stroke="#000000" d="M1019.9204,-418.5796C942.2754,-402.4782 734.9619,-351.3159 805.641,-276 846.3797,-232.5886 1022.2178,-290.0702 1073,-259 1103.4285,-240.3828 1086.0246,-212.133 1114,-190 1132.3035,-175.5191 1157.2376,-167.5433 1177.8713,-163.1759"/>
<polygon fill="#000000" stroke="#000000" points="1178.7436,-166.5726 1187.9086,-161.2573 1177.4293,-159.6971 1178.7436,-166.5726"/>
<text text-anchor="start" x="805" y="-309" font-family="Helvetica,sans-Serif" font-size="10.00" fill="#000000">ball_x_reg&gt;=170&amp;&amp;ball_x_reg+ball_size&lt;=230 &#160;&#160;</text>
<text text-anchor="start" x="805" y="-297" font-family="Helvetica,sans-Serif" font-size="10.00" fill="#000000">ball_y_reg == 220 &#160;&#160;</text>
</g>
<!-- s2&#45;&gt;s3 -->
<g id="edge16" class="edge transition">
<title>s2&#45;&gt;s3</title>
<path fill="none" stroke="#000000" d="M1045.1499,-405.884C1041.466,-376.1429 1038.3272,-316.2555 1064.641,-276 1072.8909,-263.3791 1083.1125,-269.4312 1094,-259 1120.2628,-233.8379 1110.0935,-213.3257 1138,-190 1149.5674,-180.3313 1164.4534,-173.2628 1178.1149,-168.2672"/>
<polygon fill="#000000" stroke="#000000" points="1179.4355,-171.5152 1187.7813,-164.9884 1177.1869,-164.8861 1179.4355,-171.5152"/>
<text text-anchor="start" x="1064" y="-309" font-family="Helvetica,sans-Serif" font-size="10.00" fill="#000000">ball_x_reg&gt;=290&amp;&amp;ball_x_reg+ball_size&lt;=350 &#160;&#160;</text>
<text text-anchor="start" x="1064" y="-297" font-family="Helvetica,sans-Serif" font-size="10.00" fill="#000000">ball_y_reg == 220 &#160;&#160;</text>
</g>
<!-- s2&#45;&gt;s3 -->
<g id="edge17" class="edge transition">
<title>s2&#45;&gt;s3</title>
<path fill="none" stroke="#000000" d="M1076.2853,-416.082C1090.9886,-412.3215 1109.326,-408.1809 1126,-406 1152.4561,-402.5396 1342.5905,-410.8022 1366,-398 1387.3081,-386.347 1376.0704,-365.3199 1397,-353 1432.7868,-331.9347 1448.531,-346.183 1490,-344 1502.7329,-343.3297 2399.0234,-345.0552 2408,-336 2426.7738,-317.0618 2426.7733,-294.9387 2408,-276 2399.0823,-267.0038 1508.6637,-268.2949 1496,-268 1443.0877,-266.7677 1301.4644,-289.2007 1258,-259 1245.4851,-250.3042 1232.1542,-212.8137 1223.9494,-186.0513"/>
<polygon fill="#000000" stroke="#000000" points="1227.2831,-184.9827 1221.0683,-176.4021 1220.5757,-186.9855 1227.2831,-184.9827"/>
<text text-anchor="start" x="2422" y="-309" font-family="Helvetica,sans-Serif" font-size="10.00" fill="#000000">ball_x_reg&gt;=410&amp;&amp;ball_x_reg+ball_size&lt;=470 &#160;&#160;</text>
<text text-anchor="start" x="2422" y="-297" font-family="Helvetica,sans-Serif" font-size="10.00" fill="#000000">ball_y_reg == 220 &#160;&#160;</text>
</g>
<!-- s2&#45;&gt;s4 -->
<g id="edge12" class="edge transition">
<title>s2&#45;&gt;s4</title>
<path fill="none" stroke="#000000" d="M1076.2786,-416.0302C1090.9802,-412.2561 1109.318,-408.1189 1126,-406 1194.1422,-397.3447 1366.3355,-399.8605 1435,-398 1576.3381,-394.1703 1615.2188,-420.7403 1753,-389 1790.8528,-380.28 1794.7539,-361.57 1832.641,-353 1923.0819,-332.5423 2575.552,-351.3408 2667,-336 2685.428,-332.9086 2705.2138,-326.9242 2721.778,-321.1083"/>
<polygon fill="#000000" stroke="#000000" points="2723.4252,-324.2342 2731.6343,-317.5363 2721.0401,-317.653 2723.4252,-324.2342"/>
<text text-anchor="start" x="1832" y="-368" font-family="Helvetica,sans-Serif" font-size="10.00" fill="#000000">ball_x_reg+ball_size==480&amp;&amp;ball_y_reg==120 &#160;&#160;</text>
</g>
<!-- s3&#45;&gt;move_state -->
<g id="edge24" class="edge transition">
<title>s3&#45;&gt;move_state</title>
<path fill="none" stroke="#ff0000" d="M1187.9966,-156.0787C1118.8941,-151.054 944.6082,-136.548 927.643,-117 913.6601,-100.8883 913.9673,-85.3734 927.643,-69 951.4306,-40.52 1074.4214,-35.169 1110.833,-34.2041"/>
<polygon fill="#ff0000" stroke="#ff0000" points="1110.9528,-37.7025 1120.88,-34.0012 1110.8114,-30.7039 1110.9528,-37.7025"/>
<text text-anchor="start" x="927" y="-96" font-family="Helvetica,sans-Serif" font-size="10.00" fill="#ff0000">not (ball_y_reg&gt;=180 &amp;&amp; ball_y_reg+ball_size&lt;=220) &#160;&#160;</text>
<text text-anchor="start" x="927" y="-84" font-family="Helvetica,sans-Serif" font-size="10.00" fill="#ff0000">ball_x_reg+ball_size==170||ball_x_reg+ball_size==290||ball_x_reg+ball_size==410 &#160;&#160;</text>
</g>
<!-- s3&#45;&gt;move_state -->
<g id="edge28" class="edge transition">
<title>s3&#45;&gt;move_state</title>
<path fill="none" stroke="#ff0000" d="M1244.1844,-153.2765C1264.912,-148.1681 1291.6979,-137.7736 1305,-117 1316.5041,-99.0343 1318.6027,-85.4341 1305,-69 1282.5492,-41.8761 1166.4074,-35.596 1131.1564,-34.3048"/>
<polygon fill="#ff0000" stroke="#ff0000" points="1131.2151,-30.8051 1121.1142,-34.0023 1131.0042,-37.8019 1131.2151,-30.8051"/>
<text text-anchor="start" x="1314" y="-108" font-family="Helvetica,sans-Serif" font-size="10.00" fill="#ff0000">not (ball_x_reg&gt;=170&amp;&amp;ball_x_reg+ball_size&lt;=230) &#160;&#160;</text>
<text text-anchor="start" x="1314" y="-96" font-family="Helvetica,sans-Serif" font-size="10.00" fill="#ff0000">not (ball_x_reg&gt;=290&amp;&amp;ball_x_reg+ball_size&lt;=350) &#160;&#160;</text>
<text text-anchor="start" x="1314" y="-84" font-family="Helvetica,sans-Serif" font-size="10.00" fill="#ff0000">not (ball_x_reg&gt;=410&amp;&amp;ball_x_reg+ball_size&lt;=470) &#160;&#160;</text>
<text text-anchor="start" x="1314" y="-72" font-family="Helvetica,sans-Serif" font-size="10.00" fill="#ff0000">ball_y_reg+ball_size == 180 &#160;&#160;</text>
</g>
<!-- s3&#45;&gt;s1 -->
<g id="edge30" class="edge transition">
<title>s3&#45;&gt;s1</title>
<path fill="none" stroke="#000000" d="M1244.3003,-158.5721C1342.871,-160.8088 1667.0784,-170.3031 1703,-199 1724.8543,-216.4588 1700.5848,-241.0053 1722,-259 1745.0026,-278.3286 1759.0313,-265.8571 1789,-268 1800.9977,-268.8579 2646.5341,-267.4555 2655,-276 2673.7689,-294.9431 2673.5778,-316.8694 2655,-336 2652.1942,-338.8892 2078.9691,-351.3328 2075.303,-353 2055.462,-362.0229 2061.4222,-379.1077 2042,-389 2011.6911,-404.4372 1999.9441,-395.8235 1966,-398 1955.119,-398.6977 1188.6704,-398.251 1181,-406 1169.7441,-417.3712 1170.8562,-429.6265 1181,-442 1193.9309,-457.7731 1205.7469,-448.5889 1226,-451 1248.3045,-453.6553 1409.5607,-446.1729 1428,-459 1437.4861,-465.5989 1433.0147,-472.5751 1438,-483 1439.1894,-485.4872 1440.4693,-488.0487 1441.7825,-490.6011"/>
<polygon fill="#000000" stroke="#000000" points="1438.8066,-492.4601 1446.5832,-499.6556 1444.9911,-489.1811 1438.8066,-492.4601"/>
<text text-anchor="start" x="2075" y="-380" font-family="Helvetica,sans-Serif" font-size="10.00" fill="#000000">not (ball_x_reg &lt;= bar_x_l+bar_x_size/2) &#160;&#160;</text>
<text text-anchor="start" x="2075" y="-368" font-family="Helvetica,sans-Serif" font-size="10.00" fill="#000000">ball_x_reg &gt;= bar_x_l&#45;ball_size/2&amp;&amp;ball_x_reg &lt;= bar_x_r+ball_size/2 &#160;&#160;</text>
<text text-anchor="start" x="2075" y="-356" font-family="Helvetica,sans-Serif" font-size="10.00" fill="#000000">ball_y_reg+ball_size == bar_y_t &#160;&#160;</text>
</g>
<!-- s3&#45;&gt;s2 -->
<g id="edge25" class="edge transition">
<title>s3&#45;&gt;s2</title>
<path fill="none" stroke="#000000" d="M1187.9978,-167.7472C1177.9599,-172.7523 1167.7188,-179.9636 1162,-190 1146.8177,-216.6447 1147.3049,-232.0835 1162,-259 1165.5446,-265.4925 1168.9871,-265.6472 1176,-268 1187.0929,-271.7215 1273.047,-267.418 1281,-276 1299.1258,-295.5593 1296.1634,-314.0642 1281,-336 1258.2218,-368.9516 1146.3649,-400.3017 1086.3034,-415.1077"/>
<polygon fill="#000000" stroke="#000000" points="1085.3172,-411.7455 1076.4268,-417.5084 1086.9705,-418.5474 1085.3172,-411.7455"/>
<text text-anchor="start" x="1293" y="-309" font-family="Helvetica,sans-Serif" font-size="10.00" fill="#000000">ball_x_reg&gt;=170&amp;&amp;ball_x_reg+ball_size&lt;=230 &#160;&#160;</text>
<text text-anchor="start" x="1293" y="-297" font-family="Helvetica,sans-Serif" font-size="10.00" fill="#000000">ball_y_reg+ball_size == 180 &#160;&#160;</text>
</g>
<!-- s3&#45;&gt;s2 -->
<g id="edge26" class="edge transition">
<title>s3&#45;&gt;s2</title>
<path fill="none" stroke="#000000" d="M1194.6069,-176.2802C1191.0916,-180.4041 1187.9603,-185.0429 1186,-190 1173.1018,-222.6168 1164.8689,-256.4869 1198,-268 1214.5357,-273.7462 1500.7798,-263.4655 1513,-276 1531.6153,-295.094 1531.4103,-316.7083 1513,-336 1499.8683,-349.7604 1360.6092,-340.0646 1342,-344 1287.8976,-355.4413 1279.307,-374.2914 1226,-389 1182.5419,-400.9911 1170.2049,-397.1499 1126,-406 1112.8817,-408.6264 1098.5999,-411.8228 1085.8845,-414.7892"/>
<polygon fill="#000000" stroke="#000000" points="1085.0041,-411.4007 1076.075,-417.1035 1086.6115,-418.2136 1085.0041,-411.4007"/>
<text text-anchor="start" x="1526" y="-309" font-family="Helvetica,sans-Serif" font-size="10.00" fill="#000000">ball_x_reg&gt;=290&amp;&amp;ball_x_reg+ball_size&lt;=350 &#160;&#160;</text>
<text text-anchor="start" x="1526" y="-297" font-family="Helvetica,sans-Serif" font-size="10.00" fill="#000000">ball_y_reg+ball_size == 180 &#160;&#160;</text>
</g>
<!-- s3&#45;&gt;s2 -->
<g id="edge27" class="edge transition">
<title>s3&#45;&gt;s2</title>
<path fill="none" stroke="#000000" d="M1208.6434,-176.1806C1198.8553,-203.486 1186.2232,-253.4399 1218,-268 1231.3352,-274.1102 1735.7068,-265.5496 1746,-276 1764.7128,-294.9985 1764.6588,-316.9485 1746,-336 1731.0697,-351.2445 1382.6916,-338.7878 1362,-344 1319.4026,-354.7302 1316.0492,-376.2901 1274,-389 1210.6216,-408.1568 1191.2493,-394.7605 1126,-406 1112.8156,-408.2711 1098.5173,-411.3794 1085.8072,-414.3742"/>
<polygon fill="#000000" stroke="#000000" points="1084.9093,-410.9903 1076.0061,-416.7334 1086.5475,-417.7959 1084.9093,-410.9903"/>
<text text-anchor="start" x="1760" y="-309" font-family="Helvetica,sans-Serif" font-size="10.00" fill="#000000">ball_x_reg&gt;=410&amp;&amp;ball_x_reg+ball_size&lt;=470 &#160;&#160;</text>
<text text-anchor="start" x="1760" y="-297" font-family="Helvetica,sans-Serif" font-size="10.00" fill="#000000">ball_y_reg+ball_size == 180 &#160;&#160;</text>
</g>
<!-- s3&#45;&gt;s2 -->
<g id="edge29" class="edge transition">
<title>s3&#45;&gt;s2</title>
<path fill="none" stroke="#000000" d="M1214.7096,-176.2899C1213.308,-202.0393 1212.5051,-247.1636 1223,-259 1237.1102,-274.9138 1248.8383,-265.8718 1270,-268 1279.8122,-268.9868 1973.0661,-268.9875 1980,-276 1998.7497,-294.9621 1998.7236,-317.0122 1980,-336 1968.8622,-347.2949 1424.7423,-342.0493 1409,-344 1391.7756,-346.1343 1387.0759,-346.4578 1371,-353 1342.1955,-364.7222 1340.3594,-378.7463 1311,-389 1233.0486,-416.2243 1207.6717,-393.8624 1126,-406 1112.8752,-407.9505 1098.6909,-410.9499 1086.0629,-413.9444"/>
<polygon fill="#000000" stroke="#000000" points="1085.2029,-410.5515 1076.3192,-416.3247 1086.8642,-417.3515 1085.2029,-410.5515"/>
<text text-anchor="start" x="1994" y="-315" font-family="Helvetica,sans-Serif" font-size="10.00" fill="#000000">ball_x_reg &lt;= bar_x_l+bar_x_size/2 &#160;&#160;</text>
<text text-anchor="start" x="1994" y="-303" font-family="Helvetica,sans-Serif" font-size="10.00" fill="#000000">ball_x_reg &gt;= bar_x_l&#45;ball_size/2&amp;&amp;ball_x_reg &lt;= bar_x_r+ball_size/2 &#160;&#160;</text>
<text text-anchor="start" x="1994" y="-291" font-family="Helvetica,sans-Serif" font-size="10.00" fill="#000000">ball_y_reg+ball_size == bar_y_t &#160;&#160;</text>
</g>
<!-- s3&#45;&gt;s4 -->
<g id="edge22" class="edge transition">
<title>s3&#45;&gt;s4</title>
<path fill="none" stroke="#000000" d="M1244.245,-158.4993C1343.4545,-160.4326 1672.2459,-168.4216 1714,-190 1749.0644,-208.1212 1734.5577,-241.445 1769.909,-259 1825.8839,-286.7965 1988.5185,-266.6235 2051,-268 2087.8826,-268.8126 2679.7564,-265.0969 2715,-276 2720.0288,-277.5557 2725.0132,-279.8688 2729.7314,-282.533"/>
<polygon fill="#000000" stroke="#000000" points="2728.0873,-285.6332 2738.4185,-287.982 2731.8069,-279.7032 2728.0873,-285.6332"/>
<text text-anchor="start" x="1769" y="-226" font-family="Helvetica,sans-Serif" font-size="10.00" fill="#000000">ball_x_reg+ball_size==480&amp;&amp;ball_y_reg+ball_size&lt;=358 &#160;&#160;</text>
</g>
<!-- s3&#45;&gt;s4 -->
<g id="edge23" class="edge transition">
<title>s3&#45;&gt;s4</title>
<path fill="none" stroke="#000000" d="M1244.1088,-158.7273C1383.5548,-162.4219 1995.7912,-179.6926 2031,-199 2059.6856,-214.7303 2044.7725,-243.6117 2073.643,-259 2136.5516,-292.531 2647.0516,-254.44 2715,-276 2719.9084,-277.5574 2724.779,-279.8244 2729.4027,-282.4255"/>
<polygon fill="#000000" stroke="#000000" points="2727.5967,-285.424 2737.9352,-287.7404 2731.2978,-279.4824 2727.5967,-285.424"/>
<text text-anchor="start" x="2073" y="-232" font-family="Helvetica,sans-Serif" font-size="10.00" fill="#000000">ball_y_reg&gt;=180 &amp;&amp; ball_y_reg+ball_size&lt;=220 &#160;&#160;</text>
<text text-anchor="start" x="2073" y="-220" font-family="Helvetica,sans-Serif" font-size="10.00" fill="#000000">ball_x_reg+ball_size==170||ball_x_reg+ball_size==290||ball_x_reg+ball_size==410 &#160;&#160;</text>
</g>
<!-- s7 -->
<g id="node7" class="node state regular">
<title>s7</title>
<polygon fill="#ffffff" fill-opacity="0.003922" stroke="transparent" stroke-width="2" points="2479,-52 2423,-52 2423,-16 2479,-16 2479,-52"/>
<text text-anchor="start" x="2444.6646" y="-30.2" font-family="Helvetica,sans-Serif" font-size="12.00" fill="#000000">s7</text>
<path fill="none" stroke="#000000" stroke-width="2" d="M2435.3333,-17C2435.3333,-17 2466.6667,-17 2466.6667,-17 2472.3333,-17 2478,-22.6667 2478,-28.3333 2478,-28.3333 2478,-39.6667 2478,-39.6667 2478,-45.3333 2472.3333,-51 2466.6667,-51 2466.6667,-51 2435.3333,-51 2435.3333,-51 2429.6667,-51 2424,-45.3333 2424,-39.6667 2424,-39.6667 2424,-28.3333 2424,-28.3333 2424,-22.6667 2429.6667,-17 2435.3333,-17"/>
</g>
<!-- s3&#45;&gt;s7 -->
<g id="edge31" class="edge transition">
<title>s3&#45;&gt;s7</title>
<path fill="none" stroke="#000000" d="M1244.1151,-155.1771C1406.6582,-138.857 2225.3188,-56.6595 2412.737,-37.8418"/>
<polygon fill="#000000" stroke="#000000" points="2413.3285,-41.3001 2422.9288,-36.8185 2412.6291,-34.3351 2413.3285,-41.3001"/>
<text text-anchor="start" x="2093" y="-96" font-family="Helvetica,sans-Serif" font-size="10.00" fill="#000000">not (ball_x_reg &gt;= bar_x_l&#45;ball_size/2&amp;&amp;ball_x_reg &lt;= bar_x_r+ball_size/2) &#160;&#160;</text>
<text text-anchor="start" x="2093" y="-84" font-family="Helvetica,sans-Serif" font-size="10.00" fill="#000000">ball_y_reg+ball_size == bar_y_t &#160;&#160;</text>
</g>
<!-- s4&#45;&gt;move_state -->
<g id="edge34" class="edge transition">
<title>s4&#45;&gt;move_state</title>
<path fill="none" stroke="#ff0000" d="M2782.6336,-287.7415C2789.4528,-283.145 2797.2058,-278.7429 2805,-276 2845.1958,-261.8542 2967.2352,-290.4387 2996,-259 3014.0009,-239.3257 3014.6645,-218.046 2996,-199 2991.9155,-194.832 2160.7174,-185.2024 2155.839,-182 2105.9885,-149.2757 2149.7468,-92.8817 2100,-60 2078.6966,-45.9189 1234.7319,-35.3635 1131.3446,-34.1224"/>
<polygon fill="#ff0000" stroke="#ff0000" points="1131.0844,-30.6191 1121.0437,-34.0005 1131.0015,-37.6187 1131.0844,-30.6191"/>
<text text-anchor="start" x="2155" y="-161" font-family="Helvetica,sans-Serif" font-size="10.00" fill="#ff0000">not (ball_y_reg&gt;=180 &amp;&amp; ball_y_reg&lt;=220) &#160;&#160;</text>
<text text-anchor="start" x="2155" y="-149" font-family="Helvetica,sans-Serif" font-size="10.00" fill="#ff0000">ball_x_reg==230||ball_x_reg==350||ball_x_reg==470 &#160;&#160;</text>
</g>
<!-- s4&#45;&gt;move_state -->
<g id="edge38" class="edge transition">
<title>s4&#45;&gt;move_state</title>
<path fill="none" stroke="#ff0000" d="M2782.0925,-287.8264C2789.0206,-283.1108 2796.9672,-278.6239 2805,-276 2843.9045,-263.2917 2949.2741,-277.8443 2989,-268 2998.0696,-265.7525 3003.0034,-266.8957 3008,-259 3022.26,-236.4664 3026.5792,-218.1292 3008,-199 2985.4363,-175.7684 2452.9283,-198.9083 2425.307,-182 2404.5586,-169.2989 2418.242,-148.8849 2399,-134 2292.7647,-51.8199 2239.0548,-78.3282 2106,-60 2004.4841,-46.0162 1230.0688,-35.4318 1131.3432,-34.1341"/>
<polygon fill="#ff0000" stroke="#ff0000" points="1131.2043,-30.6321 1121.1597,-34.002 1131.1135,-37.6315 1131.2043,-30.6321"/>
<text text-anchor="start" x="2425" y="-173" font-family="Helvetica,sans-Serif" font-size="10.00" fill="#ff0000">not (ball_x_reg&gt;=170&amp;&amp;ball_x_reg+ball_size&lt;=230) &#160;&#160;</text>
<text text-anchor="start" x="2425" y="-161" font-family="Helvetica,sans-Serif" font-size="10.00" fill="#ff0000">not (ball_x_reg&gt;=290&amp;&amp;ball_x_reg+ball_size&lt;=350) &#160;&#160;</text>
<text text-anchor="start" x="2425" y="-149" font-family="Helvetica,sans-Serif" font-size="10.00" fill="#ff0000">not (ball_x_reg&gt;=410&amp;&amp;ball_x_reg+ball_size&lt;=470) &#160;&#160;</text>
<text text-anchor="start" x="2425" y="-137" font-family="Helvetica,sans-Serif" font-size="10.00" fill="#ff0000">ball_y_reg+ball_size == 180 &#160;&#160;</text>
</g>
<!-- s4&#45;&gt;s1 -->
<g id="edge35" class="edge transition">
<title>s4&#45;&gt;s1</title>
<path fill="none" stroke="#000000" d="M2737.9275,-324.2355C2731,-328.9529 2723.0487,-333.4251 2715,-336 2687.8949,-344.6712 2484.9201,-332.2517 2459,-344 2434.0823,-355.2939 2441.9165,-377.7033 2417,-389 2388.0436,-402.1283 2162.7863,-397.3239 2131,-398 2120.9689,-398.2134 1415.6963,-398.8662 1408.641,-406 1397.3901,-417.3762 1399.6256,-428.7817 1408.641,-442 1420.304,-459.1002 1438.1095,-443.654 1452,-459 1459.4234,-467.2013 1461.4894,-478.9327 1461.3903,-489.7773"/>
<polygon fill="#000000" stroke="#000000" points="1457.8977,-489.5513 1460.7362,-499.7588 1464.8828,-490.0092 1457.8977,-489.5513"/>
<text text-anchor="start" x="1408" y="-427" font-family="Helvetica,sans-Serif" font-size="10.00" fill="#000000">ball_x_reg&gt;=170&amp;&amp;ball_x_reg+ball_size&lt;=230 &#160;&#160;</text>
<text text-anchor="start" x="1408" y="-415" font-family="Helvetica,sans-Serif" font-size="10.00" fill="#000000">ball_y_reg+ball_size == 180 &#160;&#160;</text>
</g>
<!-- s4&#45;&gt;s1 -->
<g id="edge36" class="edge transition">
<title>s4&#45;&gt;s1</title>
<path fill="none" stroke="#000000" d="M2737.9223,-324.2191C2730.9946,-328.936 2723.0445,-333.4122 2715,-336 2665.8922,-351.7975 2530.4244,-323.7007 2483,-344 2456.7071,-355.2543 2463.2309,-377.6019 2437,-389 2396.6036,-406.5535 2283.026,-396.6915 2239,-398 2207.2687,-398.9431 1697.3783,-394.889 1667.641,-406 1644.4074,-414.681 1645.9745,-428.7625 1625,-442 1582.8095,-468.6274 1529.7255,-491.001 1494.6478,-504.4315"/>
<polygon fill="#000000" stroke="#000000" points="1493.3741,-501.1712 1485.2556,-507.9786 1495.8473,-507.7197 1493.3741,-501.1712"/>
<text text-anchor="start" x="1667" y="-427" font-family="Helvetica,sans-Serif" font-size="10.00" fill="#000000">ball_x_reg&gt;=290&amp;&amp;ball_x_reg+ball_size&lt;=350 &#160;&#160;</text>
<text text-anchor="start" x="1667" y="-415" font-family="Helvetica,sans-Serif" font-size="10.00" fill="#000000">ball_y_reg+ball_size == 180 &#160;&#160;</text>
</g>
<!-- s4&#45;&gt;s1 -->
<g id="edge37" class="edge transition">
<title>s4&#45;&gt;s1</title>
<path fill="none" stroke="#000000" d="M2737.9158,-324.199C2730.9879,-328.9153 2723.0394,-333.3962 2715,-336 2670.9942,-350.2528 2549.6803,-326.1661 2507,-344 2480.0184,-355.2742 2485.8175,-377.3409 2459,-389 2404.2599,-412.7988 2384.6331,-395.4 2325,-398 2302.8855,-398.9642 1947.3528,-398.1895 1926.641,-406 1903.4338,-414.7515 1906.4543,-431.466 1884,-442 1814.8213,-474.4536 1586.9344,-503.2187 1495.4798,-513.7445"/>
<polygon fill="#000000" stroke="#000000" points="1494.8156,-510.2975 1485.2766,-514.9081 1495.6088,-517.2524 1494.8156,-510.2975"/>
<text text-anchor="start" x="1926" y="-427" font-family="Helvetica,sans-Serif" font-size="10.00" fill="#000000">ball_x_reg&gt;=410&amp;&amp;ball_x_reg+ball_size&lt;=470 &#160;&#160;</text>
<text text-anchor="start" x="1926" y="-415" font-family="Helvetica,sans-Serif" font-size="10.00" fill="#000000">ball_y_reg+ball_size == 180 &#160;&#160;</text>
</g>
<!-- s4&#45;&gt;s1 -->
<g id="edge39" class="edge transition">
<title>s4&#45;&gt;s1</title>
<path fill="none" stroke="#000000" d="M2737.3001,-324.0754C2730.4798,-328.6689 2722.7428,-333.1153 2715,-336 2658.3313,-357.1128 2638.7831,-338.8004 2580,-353 2534.4901,-363.9933 2526.6738,-378.7091 2481,-389 2439.6259,-398.3221 2428.3198,-395.2165 2386,-398 2361.9581,-399.5813 2190.5805,-394.6959 2169.303,-406 2151.8036,-415.2969 2160.1342,-432.046 2143,-442 2002.9937,-523.3359 1941.9355,-465.1939 1781,-483 1677.8198,-494.416 1556.1043,-507.4472 1495.4274,-513.9139"/>
<polygon fill="#000000" stroke="#000000" points="1494.7484,-510.4663 1485.1754,-515.0059 1495.4899,-517.4269 1494.7484,-510.4663"/>
<text text-anchor="start" x="2169" y="-433" font-family="Helvetica,sans-Serif" font-size="10.00" fill="#000000">ball_x_reg &lt;= bar_x_l+bar_x_size/2 &#160;&#160;</text>
<text text-anchor="start" x="2169" y="-421" font-family="Helvetica,sans-Serif" font-size="10.00" fill="#000000">ball_x_reg &gt;= bar_x_l&#45;ball_size/2&amp;&amp;ball_x_reg &lt;= bar_x_r+ball_size/2 &#160;&#160;</text>
<text text-anchor="start" x="2169" y="-409" font-family="Helvetica,sans-Serif" font-size="10.00" fill="#000000">ball_y_reg+ball_size == bar_y_t &#160;&#160;</text>
</g>
<!-- s4&#45;&gt;s2 -->
<g id="edge40" class="edge transition">
<title>s4&#45;&gt;s2</title>
<path fill="none" stroke="#000000" d="M2731.6462,-317.6085C2713.5019,-324.4157 2689.2699,-332.3713 2667,-336 2599.1277,-347.0593 1491.659,-324.0053 1429.303,-353 1405.2245,-364.1962 1414.0071,-386.6514 1390,-398 1363.4683,-410.542 1155.1047,-402.238 1126,-406 1112.8406,-407.701 1098.6474,-410.6369 1086.0221,-413.65"/>
<polygon fill="#000000" stroke="#000000" points="1085.1486,-410.2605 1076.2826,-416.0609 1086.8306,-417.0554 1085.1486,-410.2605"/>
<text text-anchor="start" x="1429" y="-380" font-family="Helvetica,sans-Serif" font-size="10.00" fill="#000000">not (ball_x_reg &lt;= bar_x_l+bar_x_size/2) &#160;&#160;</text>
<text text-anchor="start" x="1429" y="-368" font-family="Helvetica,sans-Serif" font-size="10.00" fill="#000000">ball_x_reg &gt;= bar_x_l&#45;ball_size/2&amp;&amp;ball_x_reg &lt;= bar_x_r+ball_size/2 &#160;&#160;</text>
<text text-anchor="start" x="1429" y="-356" font-family="Helvetica,sans-Serif" font-size="10.00" fill="#000000">ball_y_reg+ball_size == bar_y_t &#160;&#160;</text>
</g>
<!-- s4&#45;&gt;s3 -->
<g id="edge32" class="edge transition">
<title>s4&#45;&gt;s3</title>
<path fill="none" stroke="#000000" d="M2737.8512,-287.9942C2730.9215,-283.2833 2722.9882,-278.7569 2715,-276 2668.3636,-259.9046 2536.5826,-283.2906 2493.641,-259 2465.166,-242.8926 2479.9055,-214.3213 2451,-199 2433.0301,-189.4751 2105.3291,-191.6081 2085,-191 1763.8248,-181.3922 1376.0612,-164.9514 1254.4064,-159.6794"/>
<polygon fill="#000000" stroke="#000000" points="1254.2702,-156.1702 1244.1277,-159.233 1253.9664,-163.1636 1254.2702,-156.1702"/>
<text text-anchor="start" x="2493" y="-226" font-family="Helvetica,sans-Serif" font-size="10.00" fill="#000000">ball_x_reg==160&amp;&amp;ball_y_reg+ball_size&lt;=358 &#160;&#160;</text>
</g>
<!-- s4&#45;&gt;s3 -->
<g id="edge33" class="edge transition">
<title>s4&#45;&gt;s3</title>
<path fill="none" stroke="#000000" d="M2757.4109,-287.8161C2752.7877,-262.9019 2740.5473,-218.9742 2710,-199 2694.8372,-189.0854 2402.1103,-191.478 2384,-191 1939.8555,-179.2761 1400.7582,-163.4583 1254.2739,-159.133"/>
<polygon fill="#000000" stroke="#000000" points="1254.1209,-155.627 1244.0219,-158.8301 1253.9141,-162.624 1254.1209,-155.627"/>
<text text-anchor="start" x="2749" y="-232" font-family="Helvetica,sans-Serif" font-size="10.00" fill="#000000">ball_y_reg&gt;=180 &amp;&amp; ball_y_reg&lt;=220 &#160;&#160;</text>
<text text-anchor="start" x="2749" y="-220" font-family="Helvetica,sans-Serif" font-size="10.00" fill="#000000">ball_x_reg==230||ball_x_reg==350||ball_x_reg==470 &#160;&#160;</text>
</g>
<!-- s4&#45;&gt;s7 -->
<g id="edge41" class="edge transition">
<title>s4&#45;&gt;s7</title>
<path fill="none" stroke="#000000" d="M2782.0792,-287.7855C2789.007,-283.0688 2796.9567,-278.5915 2805,-276 2816.9581,-272.1472 3022.2749,-277.0394 3031,-268 3052.2976,-245.9352 3052.0747,-221.2779 3031,-199 3007.5962,-174.2601 2756.5677,-194.7015 2724.969,-182 2694.5633,-169.7781 2696.5982,-151.6697 2669,-134 2609.6646,-96.0107 2533.5304,-64.554 2488.7246,-47.5902"/>
<polygon fill="#000000" stroke="#000000" points="2489.7094,-44.2217 2479.117,-43.9934 2487.2551,-50.7774 2489.7094,-44.2217"/>
<text text-anchor="start" x="2724" y="-161" font-family="Helvetica,sans-Serif" font-size="10.00" fill="#000000">not (ball_x_reg &gt;= bar_x_l&#45;ball_size/2&amp;&amp;ball_x_reg &lt;= bar_x_r+ball_size/2) &#160;&#160;</text>
<text text-anchor="start" x="2724" y="-149" font-family="Helvetica,sans-Serif" font-size="10.00" fill="#000000">ball_y_reg+ball_size == bar_y_t &#160;&#160;</text>
</g>
<!-- s7&#45;&gt;s7 -->
<g id="edge42" class="edge transition">
<title>s7&#45;&gt;s7</title>
<path fill="none" stroke="#000000" d="M2479.0183,-38.8247C2490.888,-39.1883 2501,-37.5801 2501,-34 2501,-31.5387 2496.2205,-30.0094 2489.3762,-29.4121"/>
<polygon fill="#000000" stroke="#000000" points="2489.0957,-25.9049 2479.0183,-29.1753 2488.9356,-32.903 2489.0957,-25.9049"/>
<text text-anchor="middle" x="2502.3895" y="-31" font-family="Helvetica,sans-Serif" font-size="10.00" fill="#000000"> </text>
</g>
</g>
</svg>
