<?xml version="1.0" encoding="UTF-8" standalone="no"?>
<!DOCTYPE svg PUBLIC "-//W3C//DTD SVG 1.1//EN"
 "http://www.w3.org/Graphics/SVG/1.1/DTD/svg11.dtd">
<!-- Generated by graphviz version 2.40.1 (20161225.0304)
 -->
<!-- Title: state transitions Pages: 1 -->
<svg width="976pt" height="434pt"
 viewBox="0.00 0.00 976.00 434.00" xmlns="http://www.w3.org/2000/svg" xmlns:xlink="http://www.w3.org/1999/xlink">
<g id="graph0" class="graph" transform="scale(1 1) rotate(0) translate(4 430)">
<title>state transitions</title>
<polygon fill="#ffffff" stroke="transparent" points="-4,4 -4,-430 972,-430 972,4 -4,4"/>
<g id="clust1" class="cluster state regular">
<title>cluster_move_state</title>
<path fill="none" stroke="#000000" stroke-width="2" d="M20,-8C20,-8 948,-8 948,-8 954,-8 960,-14 960,-20 960,-20 960,-406 960,-406 960,-412 954,-418 948,-418 948,-418 20,-418 20,-418 14,-418 8,-412 8,-406 8,-406 8,-20 8,-20 8,-14 14,-8 20,-8"/>
<text text-anchor="start" x="452.9908" y="-399.2" font-family="Helvetica,sans-Serif" font-size="12.00" fill="#000000">move_state</text>
</g>
<!-- move_state -->
<!-- s0 -->
<g id="node2" class="node state regular">
<title>s0</title>
<polygon fill="#ffffff" fill-opacity="0.003922" stroke="transparent" stroke-width="2" points="330,-380 274,-380 274,-344 330,-344 330,-380"/>
<text text-anchor="start" x="295.6646" y="-358.2" font-family="Helvetica,sans-Serif" font-size="12.00" fill="#000000">s0</text>
<path fill="none" stroke="#000000" stroke-width="2" d="M286.3333,-345C286.3333,-345 317.6667,-345 317.6667,-345 323.3333,-345 329,-350.6667 329,-356.3333 329,-356.3333 329,-367.6667 329,-367.6667 329,-373.3333 323.3333,-379 317.6667,-379 317.6667,-379 286.3333,-379 286.3333,-379 280.6667,-379 275,-373.3333 275,-367.6667 275,-367.6667 275,-356.3333 275,-356.3333 275,-350.6667 280.6667,-345 286.3333,-345"/>
</g>
<!-- s1 -->
<g id="node3" class="node state regular">
<title>s1</title>
<polygon fill="#ffffff" fill-opacity="0.003922" stroke="transparent" stroke-width="2" points="330,-298 274,-298 274,-262 330,-262 330,-298"/>
<text text-anchor="start" x="295.6646" y="-276.2" font-family="Helvetica,sans-Serif" font-size="12.00" fill="#000000">s1</text>
<path fill="none" stroke="#000000" stroke-width="2" d="M286.3333,-263C286.3333,-263 317.6667,-263 317.6667,-263 323.3333,-263 329,-268.6667 329,-274.3333 329,-274.3333 329,-285.6667 329,-285.6667 329,-291.3333 323.3333,-297 317.6667,-297 317.6667,-297 286.3333,-297 286.3333,-297 280.6667,-297 275,-291.3333 275,-285.6667 275,-285.6667 275,-274.3333 275,-274.3333 275,-268.6667 280.6667,-263 286.3333,-263"/>
</g>
<!-- s0&#45;&gt;s1 -->
<g id="edge1" class="edge transition">
<title>s0&#45;&gt;s1</title>
<path fill="none" stroke="#000000" d="M302,-343.8015C302,-333.3976 302,-320.1215 302,-308.3768"/>
<polygon fill="#000000" stroke="#000000" points="305.5001,-308.1476 302,-298.1476 298.5001,-308.1476 305.5001,-308.1476"/>
<text text-anchor="start" x="302" y="-318" font-family="Helvetica,sans-Serif" font-size="10.00" fill="#000000">str_run &#160;&#160;</text>
</g>
<!-- s2 -->
<g id="node4" class="node state regular">
<title>s2</title>
<polygon fill="#ffffff" fill-opacity="0.003922" stroke="transparent" stroke-width="2" points="383,-216 327,-216 327,-180 383,-180 383,-216"/>
<text text-anchor="start" x="348.6646" y="-194.2" font-family="Helvetica,sans-Serif" font-size="12.00" fill="#000000">s2</text>
<path fill="none" stroke="#000000" stroke-width="2" d="M339.3333,-181C339.3333,-181 370.6667,-181 370.6667,-181 376.3333,-181 382,-186.6667 382,-192.3333 382,-192.3333 382,-203.6667 382,-203.6667 382,-209.3333 376.3333,-215 370.6667,-215 370.6667,-215 339.3333,-215 339.3333,-215 333.6667,-215 328,-209.3333 328,-203.6667 328,-203.6667 328,-192.3333 328,-192.3333 328,-186.6667 333.6667,-181 339.3333,-181"/>
</g>
<!-- s1&#45;&gt;s2 -->
<g id="edge3" class="edge transition">
<title>s1&#45;&gt;s2</title>
<path fill="none" stroke="#000000" d="M273.8696,-277.8404C234.0684,-273.7103 168.6466,-262.3275 192.335,-233 207.6781,-214.0044 273.6975,-204.8338 316.7692,-200.7958"/>
<polygon fill="#000000" stroke="#000000" points="317.2611,-204.266 326.9141,-199.899 316.6447,-197.2932 317.2611,-204.266"/>
<text text-anchor="start" x="192" y="-236" font-family="Helvetica,sans-Serif" font-size="10.00" fill="#000000">block_horizontal_collision || left_wall_collision &#160;&#160;</text>
</g>
<!-- s4 -->
<g id="node6" class="node state regular">
<title>s4</title>
<polygon fill="#ffffff" fill-opacity="0.003922" stroke="transparent" stroke-width="2" points="378,-52 322,-52 322,-16 378,-16 378,-52"/>
<text text-anchor="start" x="343.6646" y="-30.2" font-family="Helvetica,sans-Serif" font-size="12.00" fill="#000000">s4</text>
<path fill="none" stroke="#000000" stroke-width="2" d="M334.3333,-17C334.3333,-17 365.6667,-17 365.6667,-17 371.3333,-17 377,-22.6667 377,-28.3333 377,-28.3333 377,-39.6667 377,-39.6667 377,-45.3333 371.3333,-51 365.6667,-51 365.6667,-51 334.3333,-51 334.3333,-51 328.6667,-51 323,-45.3333 323,-39.6667 323,-39.6667 323,-28.3333 323,-28.3333 323,-22.6667 328.6667,-17 334.3333,-17"/>
</g>
<!-- s1&#45;&gt;s4 -->
<g id="edge2" class="edge transition">
<title>s1&#45;&gt;s4</title>
<path fill="none" stroke="#000000" d="M273.7474,-278.5403C205.6426,-274.6453 38,-262.6552 38,-239 38,-239 38,-239 38,-75 38,-47.6909 228.3311,-38.0298 311.678,-35.1083"/>
<polygon fill="#000000" stroke="#000000" points="311.885,-38.6034 321.7618,-34.7696 311.6499,-31.6074 311.885,-38.6034"/>
<text text-anchor="start" x="38" y="-154" font-family="Helvetica,sans-Serif" font-size="10.00" fill="#000000">block_vertical_collision || top_wall_collision &#160;&#160;</text>
</g>
<!-- s2&#45;&gt;s1 -->
<g id="edge5" class="edge transition">
<title>s2&#45;&gt;s1</title>
<path fill="none" stroke="#000000" d="M383.1526,-210.9772C398.2828,-219.8039 412.1306,-232.1727 403,-245 395.3996,-255.6776 365.4383,-265.2276 340.1055,-271.6437"/>
<polygon fill="#000000" stroke="#000000" points="339.2112,-268.2591 330.325,-274.0284 340.8695,-275.0598 339.2112,-268.2591"/>
<text text-anchor="start" x="405" y="-236" font-family="Helvetica,sans-Serif" font-size="10.00" fill="#000000">block_horizontal_collision || right_wall_collision &#160;&#160;</text>
</g>
<!-- s3 -->
<g id="node5" class="node state regular">
<title>s3</title>
<polygon fill="#ffffff" fill-opacity="0.003922" stroke="transparent" stroke-width="2" points="462,-134 406,-134 406,-98 462,-98 462,-134"/>
<text text-anchor="start" x="427.6646" y="-112.2" font-family="Helvetica,sans-Serif" font-size="12.00" fill="#000000">s3</text>
<path fill="none" stroke="#000000" stroke-width="2" d="M418.3333,-99C418.3333,-99 449.6667,-99 449.6667,-99 455.3333,-99 461,-104.6667 461,-110.3333 461,-110.3333 461,-121.6667 461,-121.6667 461,-127.3333 455.3333,-133 449.6667,-133 449.6667,-133 418.3333,-133 418.3333,-133 412.6667,-133 407,-127.3333 407,-121.6667 407,-121.6667 407,-110.3333 407,-110.3333 407,-104.6667 412.6667,-99 418.3333,-99"/>
</g>
<!-- s2&#45;&gt;s3 -->
<g id="edge4" class="edge transition">
<title>s2&#45;&gt;s3</title>
<path fill="none" stroke="#000000" d="M326.7249,-187.7626C307.311,-179.1306 286.9595,-165.8356 298.451,-151 310.3039,-135.6978 359.8792,-125.8883 395.6486,-120.6602"/>
<polygon fill="#000000" stroke="#000000" points="396.3679,-124.0938 405.7881,-119.245 395.4002,-117.161 396.3679,-124.0938"/>
<text text-anchor="start" x="298" y="-154" font-family="Helvetica,sans-Serif" font-size="10.00" fill="#000000">block_vertical_collision || top_wall_collision &#160;&#160;</text>
</g>
<!-- s3&#45;&gt;s2 -->
<g id="edge6" class="edge transition">
<title>s3&#45;&gt;s2</title>
<path fill="none" stroke="#000000" d="M462.1851,-124.3254C484.9469,-132.5065 511.1913,-146.1906 498,-163 485.1995,-179.3114 431.1855,-189.0057 393.3397,-193.9187"/>
<polygon fill="#000000" stroke="#000000" points="392.6368,-190.4788 383.1417,-195.1791 393.4955,-197.426 392.6368,-190.4788"/>
<text text-anchor="start" x="501" y="-154" font-family="Helvetica,sans-Serif" font-size="10.00" fill="#000000">block_vertical_collision || paddle_collision &#160;&#160;</text>
</g>
<!-- s3&#45;&gt;s4 -->
<g id="edge7" class="edge transition">
<title>s3&#45;&gt;s4</title>
<path fill="none" stroke="#000000" d="M405.728,-115.2588C356.533,-113.3079 258.3956,-106.2673 237.226,-81 214.1823,-53.4959 270.8361,-41.8184 311.9218,-37.0609"/>
<polygon fill="#000000" stroke="#000000" points="312.3987,-40.53 321.9739,-35.995 311.6605,-33.569 312.3987,-40.53"/>
<text text-anchor="start" x="237" y="-72" font-family="Helvetica,sans-Serif" font-size="10.00" fill="#000000">block_horizontal_collision || right_wall_collision &#160;&#160;</text>
</g>
<!-- s4&#45;&gt;s1 -->
<g id="edge8" class="edge transition">
<title>s4&#45;&gt;s1</title>
<path fill="none" stroke="#000000" d="M378.181,-35.3387C470.8116,-39.9231 760,-55.7748 760,-75 760,-239 760,-239 760,-239 760,-260.0019 450.4516,-274.1826 340.3224,-278.5631"/>
<polygon fill="#000000" stroke="#000000" points="340.1593,-275.0667 330.3043,-278.9564 340.4339,-282.0614 340.1593,-275.0667"/>
<text text-anchor="start" x="760" y="-154" font-family="Helvetica,sans-Serif" font-size="10.00" fill="#000000">block_vertical_collision || paddle_collision &#160;&#160;</text>
</g>
<!-- s4&#45;&gt;s3 -->
<g id="edge9" class="edge transition">
<title>s4&#45;&gt;s3</title>
<path fill="none" stroke="#000000" d="M378.1263,-39.6227C405.7403,-45.7815 444.9954,-56.4687 454,-69 458.2691,-74.9411 457.7096,-81.9342 454.9902,-88.6842"/>
<polygon fill="#000000" stroke="#000000" points="451.8411,-87.1504 450.1939,-97.6165 458.0083,-90.462 451.8411,-87.1504"/>
<text text-anchor="start" x="457" y="-72" font-family="Helvetica,sans-Serif" font-size="10.00" fill="#000000">block_horizontal_collision || left_wall_collision &#160;&#160;</text>
</g>
</g>
</svg>
